<?xml version="1.0" encoding="UTF-8"?>
<svg xmlns="http://www.w3.org/2000/svg" width="1024" height="1024" viewBox="0 0 1024 1024" role="img" aria-labelledby="title desc">
    <title id="title">Nexus logo</title>
    <desc id="desc">Stylized N with orbiting nodes — Nexus event broker</desc>

    <defs>
        <linearGradient id="g1" x1="0" x2="1" y1="0" y2="1">
            <stop offset="0%" stop-color="#0066FF"/>
            <stop offset="100%" stop-color="#00C3FF"/>
        </linearGradient>
        <linearGradient id="g2" x1="0" x2="1" y1="0" y2="1">
            <stop offset="0%" stop-color="#0EA5A4"/>
            <stop offset="100%" stop-color="#7C3AED"/>
        </linearGradient>

        <filter id="f1" x="-30%" y="-30%" width="160%" height="160%">
            <feDropShadow dx="0" dy="10" stdDeviation="30" flood-color="#0a2546" flood-opacity="0.18"/>
        </filter>
    </defs>

    <rect x="64" y="64" width="896" height="896" rx="160" ry="160" fill="url(#g1)" filter="url(#f1)"/>

    <g transform="translate(512,512)">
        <path d="M -260 0 A 260 260 0 1 1 260 0 A 260 260 0 1 1 -260 0 Z" fill="none" stroke="rgba(255,255,255,0.12)" stroke-width="16" stroke-linecap="round"/>
        <path d="M -260 0 A 260 260 0 0 1 0 -260" fill="none" stroke="rgba(255,255,255,0.22)" stroke-width="20" stroke-linecap="round" stroke-linejoin="round"/>
    </g>

    <g transform="translate(512,512)">
        <circle cx="-260" cy="0" r="18" fill="#fff" opacity="0.95"/>
        <circle cx="0" cy="-260" r="18" fill="#fff" opacity="0.95"/>
        <circle cx="220" cy="140" r="14" fill="#fff" opacity="0.9"/>
    </g>

    <g transform="translate(512,512) scale(1) translate(-160,-160)">
        <path d="M48 48 H320 V416 H272 L272 160 144 416 H96 V48 Z" fill="url(#g2)"/>
        <path d="M104 56 L246 344 L304 56 L352 56 L210 360 L160 360 L104 56 Z" fill="rgba(255,255,255,0.12)"/>
        <path d="M80 64 L240 368" fill="none" stroke="#FFFFFF" stroke-width="28" stroke-linecap="round" stroke-linejoin="round" opacity="0.95"/>
        <path d="M272 64 L112 368" fill="none" stroke="#FFFFFF" stroke-width="28" stroke-linecap="round" stroke-linejoin="round" opacity="0.95"/>
    </g>

    <g transform="translate(512,820)" text-anchor="middle">
        <text x="0" y="0" font-family="Inter, Roboto, Arial, sans-serif" font-weight="700" font-size="64" fill="#FFFFFF">NEXUS</text>
        <text x="0" y="46" font-family="Inter, Roboto, Arial, sans-serif" font-weight="500" font-size="18" fill="rgba(255,255,255,0.85)">event broker · orchestrator</text>
    </g>

</svg>
